<mxfile host="app.diagrams.net" modified="2021-06-12T23:32:40.601Z" agent="5.0 (Windows NT 10.0; Win64; x64) AppleWebKit/537.36 (KHTML, like Gecko) Chrome/91.0.4472.77 Safari/537.36 Edg/91.0.864.41" etag="qlOr5en7AOUQbTxUeB8-" version="14.7.7" type="github" pages="2">
  <diagram id="V5_RUA1tg1Pm5WBcveN6" name="Page-1">
    <mxGraphModel dx="948" dy="548" grid="0" gridSize="10" guides="1" tooltips="1" connect="1" arrows="1" fold="1" page="1" pageScale="1" pageWidth="1100" pageHeight="850" background="#000000" math="0" shadow="0">
      <root>
        <mxCell id="0" />
        <mxCell id="1" parent="0" />
        <mxCell id="Vmu5o7AtETMirdaaOfv3-76" value="Brazil South" style="whiteSpace=wrap;html=1;dashed=1;dashPattern=1 1;fontSize=11;fillColor=none;align=center;verticalAlign=top;fontColor=#FFFFFF;strokeColor=#FFFFFF;fontStyle=1;rounded=1;glass=0;shadow=0;sketch=1;" vertex="1" parent="1">
          <mxGeometry x="600" y="410" width="340" height="310" as="geometry" />
        </mxCell>
        <mxCell id="Vmu5o7AtETMirdaaOfv3-75" value="East US" style="whiteSpace=wrap;html=1;dashed=1;dashPattern=1 1;fontSize=11;fillColor=none;align=center;verticalAlign=top;fontColor=#FFFFFF;strokeColor=#FFFFFF;rounded=1;fontStyle=1;sketch=1;" vertex="1" parent="1">
          <mxGeometry x="150" y="410" width="340" height="310" as="geometry" />
        </mxCell>
        <mxCell id="Vmu5o7AtETMirdaaOfv3-7" value="Docker Swarm Distributed Cluster" style="whiteSpace=wrap;html=1;verticalAlign=top;" vertex="1" parent="1">
          <mxGeometry x="80" y="1060" width="910" height="480" as="geometry" />
        </mxCell>
        <mxCell id="Vmu5o7AtETMirdaaOfv3-47" style="edgeStyle=none;orthogonalLoop=1;jettySize=auto;html=1;fontSize=10;startArrow=none;startFill=0;endArrow=none;endFill=0;strokeColor=#FFFFFF;" edge="1" parent="1" source="Vmu5o7AtETMirdaaOfv3-1" target="Vmu5o7AtETMirdaaOfv3-23">
          <mxGeometry relative="1" as="geometry" />
        </mxCell>
        <mxCell id="Vmu5o7AtETMirdaaOfv3-72" style="edgeStyle=none;orthogonalLoop=1;jettySize=auto;html=1;fontSize=11;startArrow=none;startFill=0;endArrow=none;endFill=0;strokeColor=#FFFFFF;" edge="1" parent="1" source="Vmu5o7AtETMirdaaOfv3-1" target="Vmu5o7AtETMirdaaOfv3-67">
          <mxGeometry relative="1" as="geometry">
            <Array as="points">
              <mxPoint x="360" y="566" />
              <mxPoint x="360" y="490" />
            </Array>
          </mxGeometry>
        </mxCell>
        <mxCell id="Vmu5o7AtETMirdaaOfv3-73" style="edgeStyle=none;orthogonalLoop=1;jettySize=auto;html=1;fontSize=11;startArrow=none;startFill=0;endArrow=none;endFill=0;strokeColor=#FFFFFF;" edge="1" parent="1" source="Vmu5o7AtETMirdaaOfv3-1" target="Vmu5o7AtETMirdaaOfv3-69">
          <mxGeometry relative="1" as="geometry">
            <Array as="points">
              <mxPoint x="360" y="566" />
              <mxPoint x="360" y="640" />
            </Array>
          </mxGeometry>
        </mxCell>
        <mxCell id="Vmu5o7AtETMirdaaOfv3-1" value="VNet 1" style="aspect=fixed;html=1;points=[];align=center;image;fontSize=12;image=img/lib/azure2/networking/Virtual_Networks.svg;fontColor=#FFFFFF;labelBackgroundColor=none;" vertex="1" parent="1">
          <mxGeometry x="420" y="556" width="33.5" height="20" as="geometry" />
        </mxCell>
        <mxCell id="Vmu5o7AtETMirdaaOfv3-62" style="edgeStyle=none;orthogonalLoop=1;jettySize=auto;html=1;entryX=-0.021;entryY=0.503;entryDx=0;entryDy=0;entryPerimeter=0;fontSize=10;startArrow=none;startFill=0;endArrow=none;endFill=0;strokeColor=#FFFFFF;" edge="1" parent="1" source="Vmu5o7AtETMirdaaOfv3-23" target="Vmu5o7AtETMirdaaOfv3-59">
          <mxGeometry relative="1" as="geometry">
            <mxPoint x="680" y="566" as="sourcePoint" />
            <mxPoint x="837.8370300000001" y="649.9999999999999" as="targetPoint" />
            <Array as="points">
              <mxPoint x="740" y="566" />
              <mxPoint x="740" y="640" />
            </Array>
          </mxGeometry>
        </mxCell>
        <mxCell id="Vmu5o7AtETMirdaaOfv3-64" style="edgeStyle=none;orthogonalLoop=1;jettySize=auto;html=1;fontSize=10;startArrow=none;startFill=0;endArrow=none;endFill=0;" edge="1" parent="1" source="Vmu5o7AtETMirdaaOfv3-23" target="Vmu5o7AtETMirdaaOfv3-41">
          <mxGeometry relative="1" as="geometry">
            <mxPoint x="790" y="460" as="targetPoint" />
            <Array as="points">
              <mxPoint x="740" y="566" />
              <mxPoint x="740" y="490" />
            </Array>
          </mxGeometry>
        </mxCell>
        <mxCell id="Vmu5o7AtETMirdaaOfv3-23" value="VNet 2" style="aspect=fixed;html=1;points=[];align=center;image;fontSize=12;image=img/lib/azure2/networking/Virtual_Networks.svg;fontColor=#FFFFFF;labelBackgroundColor=none;" vertex="1" parent="1">
          <mxGeometry x="640" y="556" width="33.5" height="20" as="geometry" />
        </mxCell>
        <mxCell id="Vmu5o7AtETMirdaaOfv3-41" value="Swarm Manager 2" style="aspect=fixed;html=1;points=[];align=center;image;fontSize=12;image=img/lib/azure2/compute/Virtual_Machine.svg;fontColor=#FFFFFF;labelBackgroundColor=none;" vertex="1" parent="1">
          <mxGeometry x="780" y="470" width="43.13" height="40" as="geometry" />
        </mxCell>
        <mxCell id="Vmu5o7AtETMirdaaOfv3-53" value="" style="shape=image;html=1;verticalAlign=top;verticalLabelPosition=bottom;labelBackgroundColor=#ffffff;imageAspect=0;aspect=fixed;image=https://cdn3.iconfinder.com/data/icons/social-media-2169/24/social_media_social_media_logo_docker-128.png;dashed=1;dashPattern=1 1;fontSize=10;fillColor=none;" vertex="1" parent="1">
          <mxGeometry x="820" y="490" width="30" height="30" as="geometry" />
        </mxCell>
        <mxCell id="Vmu5o7AtETMirdaaOfv3-59" value="Swarm Worker 2" style="aspect=fixed;html=1;points=[];align=center;image;fontSize=12;image=img/lib/azure2/compute/Virtual_Machine.svg;fontColor=#FFFFFF;labelBackgroundColor=none;" vertex="1" parent="1">
          <mxGeometry x="780" y="620" width="43.13" height="40" as="geometry" />
        </mxCell>
        <mxCell id="Vmu5o7AtETMirdaaOfv3-60" value="" style="shape=image;html=1;verticalAlign=top;verticalLabelPosition=bottom;labelBackgroundColor=#ffffff;imageAspect=0;aspect=fixed;image=https://cdn3.iconfinder.com/data/icons/social-media-2169/24/social_media_social_media_logo_docker-128.png;dashed=1;dashPattern=1 1;fontSize=10;fillColor=none;" vertex="1" parent="1">
          <mxGeometry x="823.13" y="640" width="30" height="30" as="geometry" />
        </mxCell>
        <mxCell id="Vmu5o7AtETMirdaaOfv3-65" style="edgeStyle=none;orthogonalLoop=1;jettySize=auto;html=1;fontSize=10;startArrow=none;startFill=0;endArrow=none;endFill=0;strokeColor=#FFFFFF;" edge="1" parent="1" source="Vmu5o7AtETMirdaaOfv3-23" target="Vmu5o7AtETMirdaaOfv3-41">
          <mxGeometry relative="1" as="geometry">
            <mxPoint x="850" y="490.0000000000001" as="targetPoint" />
            <mxPoint x="673.5" y="566" as="sourcePoint" />
            <Array as="points">
              <mxPoint x="740" y="566" />
              <mxPoint x="740" y="490" />
            </Array>
          </mxGeometry>
        </mxCell>
        <mxCell id="Vmu5o7AtETMirdaaOfv3-66" value="VNet Peering" style="text;html=1;strokeColor=none;fillColor=none;align=center;verticalAlign=middle;whiteSpace=wrap;dashed=1;dashPattern=1 1;fontSize=10;fontStyle=3;fontColor=#FFFFFF;" vertex="1" parent="1">
          <mxGeometry x="500" y="550" width="90" height="20" as="geometry" />
        </mxCell>
        <mxCell id="Vmu5o7AtETMirdaaOfv3-67" value="Swarm Manager 1" style="aspect=fixed;html=1;points=[];align=center;image;fontSize=12;image=img/lib/azure2/compute/Virtual_Machine.svg;fontColor=#FFFFFF;labelBackgroundColor=none;" vertex="1" parent="1">
          <mxGeometry x="240" y="470" width="43.13" height="40" as="geometry" />
        </mxCell>
        <mxCell id="Vmu5o7AtETMirdaaOfv3-68" value="" style="shape=image;html=1;verticalAlign=top;verticalLabelPosition=bottom;labelBackgroundColor=#ffffff;imageAspect=0;aspect=fixed;image=https://cdn3.iconfinder.com/data/icons/social-media-2169/24/social_media_social_media_logo_docker-128.png;dashed=1;dashPattern=1 1;fontSize=10;fillColor=none;" vertex="1" parent="1">
          <mxGeometry x="280" y="490" width="30" height="30" as="geometry" />
        </mxCell>
        <mxCell id="Vmu5o7AtETMirdaaOfv3-69" value="Swarm Worker 1" style="aspect=fixed;html=1;points=[];align=center;image;fontSize=12;image=img/lib/azure2/compute/Virtual_Machine.svg;fontColor=#FFFFFF;labelBackgroundColor=none;" vertex="1" parent="1">
          <mxGeometry x="240" y="620" width="43.13" height="40" as="geometry" />
        </mxCell>
        <mxCell id="Vmu5o7AtETMirdaaOfv3-70" value="" style="shape=image;html=1;verticalAlign=top;verticalLabelPosition=bottom;labelBackgroundColor=#ffffff;imageAspect=0;aspect=fixed;image=https://cdn3.iconfinder.com/data/icons/social-media-2169/24/social_media_social_media_logo_docker-128.png;dashed=1;dashPattern=1 1;fontSize=10;fillColor=none;" vertex="1" parent="1">
          <mxGeometry x="283.13" y="640" width="30" height="30" as="geometry" />
        </mxCell>
      </root>
    </mxGraphModel>
  </diagram>
  <diagram id="-WNtTeLonZMKBzsRIB9N" name="Page-2">
    <mxGraphModel dx="1374" dy="794" grid="1" gridSize="10" guides="1" tooltips="1" connect="1" arrows="1" fold="1" page="1" pageScale="1" pageWidth="1100" pageHeight="850" background="#182E3E" math="0" shadow="0">
      <root>
        <mxCell id="-fzhIyi00WC2ZkEj3UgV-0" />
        <mxCell id="-fzhIyi00WC2ZkEj3UgV-1" parent="-fzhIyi00WC2ZkEj3UgV-0" />
        <mxCell id="-fzhIyi00WC2ZkEj3UgV-2" value="" style="rounded=0;whiteSpace=wrap;html=1;sketch=0;fontColor=#1A1A1A;strokeColor=#FFFFFF;fillColor=#EEEEEE;" vertex="1" parent="-fzhIyi00WC2ZkEj3UgV-1">
          <mxGeometry x="270" y="310" width="120" height="60" as="geometry" />
        </mxCell>
        <mxCell id="-fzhIyi00WC2ZkEj3UgV-3" value="fsdf" style="aspect=fixed;html=1;points=[];align=center;image;fontSize=12;image=img/lib/azure2/compute/Virtual_Machine.svg;rounded=0;sketch=0;fontColor=#1A1A1A;strokeColor=#FFFFFF;fillColor=#EEEEEE;" vertex="1" parent="-fzhIyi00WC2ZkEj3UgV-1">
          <mxGeometry x="500" y="370" width="69" height="64" as="geometry" />
        </mxCell>
      </root>
    </mxGraphModel>
  </diagram>
</mxfile>
